<svg version="1.2" baseProfile="tiny-ps" xmlns="http://www.w3.org/2000/svg" viewBox="0 0 523 804" width="523" height="804"><title>logo</title><defs><linearGradient id="grd1" gradientUnits="userSpaceOnUse"  x1="450.556" y1="470.062" x2="324.498" y2="490.028"><stop offset="0" stop-color="#357a42"  /><stop offset="1" stop-color="#adcd4e"  /></linearGradient><linearGradient id="grd2" gradientUnits="userSpaceOnUse"  x1="231.479" y1="470.053" x2="106.178" y2="489.899"><stop offset="0" stop-color="#357a42"  /><stop offset="1" stop-color="#adcd4e"  /></linearGradient><linearGradient id="grd3" gradientUnits="userSpaceOnUse"  x1="522.236" y1="305.994" x2="214.874" y2="354.675"><stop offset="0" stop-color="#357a42"  /><stop offset="1" stop-color="#adcd4e"  /></linearGradient></defs><style>tspan { white-space:pre }.shp0 { fill: #ce000c } .shp1 { fill: url(#grd1) } .shp2 { fill: url(#grd2) } .shp3 { fill: url(#grd3) } </style><g ><path class="shp0" d="M96.75 713.14C105.47 726.53 115.89 738.89 122.82 753.28C129.75 767.66 132.83 785.02 126.11 799.51C121.91 808.57 108.12 802.25 101.43 794.82C19.78 704.03 -5.22 574.29 0.87 452.33C6.87 332.19 40.92 211.62 110.93 113.81C130.12 87.01 152.1 61.85 178.72 42.41C231.42 3.92 301.63 -9.51 364.82 6.82C367.75 7.58 371.36 9.38 370.93 12.38C363.07 66.43 355.21 120.49 347.35 174.54C345.1 190 341.81 207.23 328.99 216.16C315.26 225.73 296.79 221.69 280.07 220.96C233.43 218.91 189.96 246.19 157.93 280.15C94.15 347.78 65.1 442.29 59.74 535.09C56.18 596.65 63.1 661.47 96.75 713.14L96.75 713.14Z" /><path class="shp1" d="M414.11 594.23C410.64 599.44 403.29 599.9 397.03 599.77C373.13 599.25 349.25 597.9 325.44 595.72C324.27 594.3 324.43 592.24 324.66 590.41C331.79 532.81 340.38 475.38 350.41 418.21C352.37 407.08 354.43 395.8 359.38 385.64C364.33 375.48 372.63 366.42 383.43 363.11C388.91 361.43 394.72 361.29 400.45 361.17C413.85 360.89 427.26 360.6 440.66 360.32C442.81 360.28 445.08 360.26 446.94 361.33C451.08 363.71 450.88 369.65 450.13 374.37C438.91 445.1 427.7 515.82 416.48 586.55C416.06 589.22 415.6 591.98 414.11 594.23Z" /><path class="shp2" d="M192.55 597.18C189.34 599.77 184.81 599.77 180.68 599.65C158.06 598.96 135.44 598.28 112.82 597.6C106.66 597.41 105.56 588.74 106.45 582.64C113.35 535.19 120.25 487.74 127.16 440.29C129.63 423.29 132.15 406.1 138.73 390.23C143.05 379.79 149.65 369.55 159.89 364.77C167.29 361.31 175.74 361.1 183.91 360.95C195.78 360.72 207.66 360.5 219.53 360.28C222.36 360.23 225.39 360.23 227.75 361.81C232.14 364.75 231.8 371.21 230.96 376.44C219.79 446.18 208.62 515.92 197.45 585.66C196.77 589.88 195.88 594.49 192.55 597.18L192.55 597.18Z" /><path class="shp3" d="M521.82 75.19C511.86 137.47 501.89 199.76 491.93 262.04C491.52 264.57 491.07 267.22 489.48 269.23C486.79 272.65 481.85 273.1 477.49 273.23C446.54 274.2 415.56 273.79 384.65 272.01C374.68 271.43 362.96 271.46 356.91 279.41C353.89 283.36 353.02 288.5 352.24 293.41C336.41 392.99 320.58 492.56 304.75 592.13C303.93 597.29 297.21 598.6 291.99 598.64C266.23 598.82 240.46 597.41 214.87 594.45C231.36 483.68 247.84 372.9 264.32 262.13C266.35 248.49 283.49 243.19 297.26 244.01C311.03 244.82 325.94 248.49 337.87 241.57C350.93 234 354.61 217.17 357.03 202.27C364.11 158.54 371.2 114.8 378.29 71.06C379.48 63.72 389.12 61.99 396.56 62.01C435.27 62.12 473.98 62.23 512.69 62.34C515.05 62.34 517.59 62.41 519.49 63.81C522.78 66.23 522.47 71.15 521.82 75.19Z" /></g></svg>