<svg version="1.2" baseProfile="tiny-ps" xmlns="http://www.w3.org/2000/svg" viewBox="0 0 1868 804" width="1868" height="804"><title>Grow more-svg</title><defs><linearGradient id="grd1" gradientUnits="userSpaceOnUse"  x1="450.556" y1="470.062" x2="324.498" y2="490.028"><stop offset="0" stop-color="#357a42"  /><stop offset="1" stop-color="#adcd4e"  /></linearGradient><linearGradient id="grd2" gradientUnits="userSpaceOnUse"  x1="231.479" y1="470.053" x2="106.178" y2="489.899"><stop offset="0" stop-color="#357a42"  /><stop offset="1" stop-color="#adcd4e"  /></linearGradient><linearGradient id="grd3" gradientUnits="userSpaceOnUse"  x1="522.236" y1="305.994" x2="214.874" y2="354.675"><stop offset="0" stop-color="#357a42"  /><stop offset="1" stop-color="#adcd4e"  /></linearGradient></defs><style>tspan { white-space:pre }.shp0 { fill: #ce000c } .shp1 { fill: url(#grd1) } .shp2 { fill: url(#grd2) } .shp3 { fill: url(#grd3) } .shp4 { fill: #000000 } </style><g ><path class="shp0" d="M96.75 713.14C105.47 726.53 115.89 738.89 122.82 753.28C129.75 767.66 132.83 785.02 126.11 799.51C121.91 808.57 108.12 802.25 101.43 794.82C19.78 704.03 -5.22 574.29 0.87 452.33C6.87 332.19 40.92 211.62 110.93 113.81C130.12 87.01 152.1 61.85 178.72 42.41C231.42 3.92 301.63 -9.51 364.82 6.82C367.75 7.58 371.36 9.38 370.93 12.38C363.07 66.43 355.21 120.49 347.35 174.54C345.1 190 341.81 207.23 328.99 216.16C315.26 225.73 296.79 221.69 280.07 220.96C233.43 218.91 189.96 246.19 157.93 280.15C94.15 347.78 65.1 442.29 59.74 535.09C56.18 596.65 63.1 661.47 96.75 713.14L96.75 713.14Z" /><path class="shp1" d="M414.11 594.23C410.64 599.44 403.29 599.9 397.03 599.77C373.13 599.25 349.25 597.9 325.44 595.72C324.27 594.3 324.43 592.24 324.66 590.41C331.79 532.81 340.38 475.38 350.41 418.21C352.37 407.08 354.43 395.8 359.38 385.64C364.33 375.48 372.63 366.42 383.43 363.11C388.91 361.43 394.72 361.29 400.45 361.17C413.85 360.89 427.26 360.6 440.66 360.32C442.81 360.28 445.08 360.26 446.94 361.33C451.08 363.71 450.88 369.65 450.13 374.37C438.91 445.1 427.7 515.82 416.48 586.55C416.06 589.22 415.6 591.98 414.11 594.23Z" /><path class="shp2" d="M192.55 597.18C189.34 599.77 184.81 599.77 180.68 599.65C158.06 598.96 135.44 598.28 112.82 597.6C106.66 597.41 105.56 588.74 106.45 582.64C113.35 535.19 120.25 487.74 127.16 440.29C129.63 423.29 132.15 406.1 138.73 390.23C143.05 379.79 149.65 369.55 159.89 364.77C167.29 361.31 175.74 361.1 183.91 360.95C195.78 360.72 207.66 360.5 219.53 360.28C222.36 360.23 225.39 360.23 227.75 361.81C232.14 364.75 231.8 371.21 230.96 376.44C219.79 446.18 208.62 515.92 197.45 585.66C196.77 589.88 195.88 594.49 192.55 597.18L192.55 597.18Z" /><path class="shp3" d="M521.82 75.19C511.86 137.47 501.89 199.76 491.93 262.04C491.52 264.57 491.07 267.22 489.48 269.23C486.79 272.65 481.85 273.1 477.49 273.23C446.54 274.2 415.56 273.79 384.65 272.01C374.68 271.43 362.96 271.46 356.91 279.41C353.89 283.36 353.02 288.5 352.24 293.41C336.41 392.99 320.58 492.56 304.75 592.13C303.93 597.29 297.21 598.6 291.99 598.64C266.23 598.82 240.46 597.41 214.87 594.45C231.36 483.68 247.84 372.9 264.32 262.13C266.35 248.49 283.49 243.19 297.26 244.01C311.03 244.82 325.94 248.49 337.87 241.57C350.93 234 354.61 217.17 357.03 202.27C364.11 158.54 371.2 114.8 378.29 71.06C379.48 63.72 389.12 61.99 396.56 62.01C435.27 62.12 473.98 62.23 512.69 62.34C515.05 62.34 517.59 62.41 519.49 63.81C522.78 66.23 522.47 71.15 521.82 75.19Z" /></g><g ><path fill-rule="evenodd" class="shp4" d="M1509.81 135.91C1520.24 129.26 1533.35 128.98 1545.71 128.9C1555.47 128.84 1566.08 129.06 1573.71 135.15C1584.95 144.11 1584.5 161.03 1582.9 175.31C1582.48 179.05 1587.61 180.48 1591.37 180.49C1616.95 180.56 1642.54 180.63 1668.13 180.71C1673.33 180.72 1679.3 180.38 1682.49 176.27C1684.88 173.2 1684.89 168.98 1684.98 165.1C1685.15 157.05 1686.18 148.71 1690.45 141.89C1694.72 135.07 1702.97 130.2 1710.8 132.02C1708.11 145.63 1705.41 159.24 1702.71 172.85C1702.31 174.86 1701.99 177.19 1703.3 178.77C1704.59 180.33 1706.89 180.46 1708.92 180.47C1734.69 180.55 1760.46 180.64 1786.22 180.72C1790.94 180.74 1797.09 179.58 1797.72 174.91C1801.82 144.25 1805.92 113.59 1810.02 82.93C1812.4 65.13 1816.81 44.43 1833.12 36.9C1836.79 41.89 1836.09 48.74 1835.22 54.88C1828.41 102.95 1821.61 151.02 1814.8 199.09C1814.23 203.14 1813.59 207.36 1811.19 210.66C1806.55 217.04 1797.43 217.63 1789.55 217.62C1657.11 217.58 1524.68 217.53 1392.24 217.48C1385.99 217.48 1381.2 223.31 1379.25 229.26C1377.31 235.2 1377.23 241.64 1375.15 247.54C1371.83 257.02 1362.77 264.52 1352.74 264.97C1342.7 265.43 1332.58 258.07 1330.85 248.18C1329.13 238.28 1337.04 227.49 1347.08 227.05C1349.8 226.93 1352.57 227.48 1355.21 226.83C1357.85 226.19 1360.39 223.71 1359.75 221.07C1358.48 215.87 1350.58 219.21 1345.28 218.46C1337.67 217.39 1336.13 207.12 1336.89 199.47C1339.09 177.11 1345.02 153.62 1361.45 138.28C1370.02 130.28 1381.11 125.02 1392.73 123.44C1392.1 140.82 1390.67 158.17 1388.43 175.42C1390.01 179.91 1395.93 180.67 1400.69 180.67C1424.52 180.63 1448.35 180.6 1472.19 180.57C1475.34 180.56 1478.77 180.46 1481.2 178.46C1484.03 176.13 1484.54 172.08 1484.86 168.43C1487.72 136.13 1491.89 103.93 1497.35 71.96C1499.64 58.57 1504.8 42.42 1518.17 40.02C1521.99 39.34 1523.17 45.03 1522.6 48.87C1518.34 77.88 1514.07 106.89 1509.81 135.91ZM1504.1 177.01C1505.75 180.2 1510.06 180.6 1513.65 180.6C1526.49 180.57 1539.34 180.54 1552.18 180.52C1554.56 180.51 1557.16 180.43 1558.96 178.87C1562.03 176.19 1560.55 170.73 1557.18 168.46C1553.8 166.18 1549.44 166.17 1545.37 166.25C1535.94 166.42 1526.51 166.58 1517.08 166.75C1513.75 166.81 1510.26 166.92 1507.38 168.59C1504.5 170.25 1502.57 174.05 1504.1 177.01ZM1367.28 176.98C1367.31 175.07 1367.07 173.15 1366.59 171.31C1366.32 170.3 1365.33 169.07 1364.49 169.7C1362.65 171.76 1360.68 174.17 1360.98 176.92C1361.27 179.67 1365.44 181.56 1366.82 179.17C1367.2 178.52 1367.27 177.73 1367.28 176.98Z" /><g ><path fill-rule="evenodd" class="shp0" d="M1673.47 596.81C1674.36 600.75 1675.04 605.45 1672.2 608.32C1670.46 610.06 1667.88 610.58 1665.47 611.02C1658.81 612.22 1651.94 613.42 1645.32 611.99C1638.71 610.56 1632.33 605.82 1631.1 599.16C1625.99 571.45 1620.12 543.88 1613.48 516.49C1613.04 514.67 1612.55 512.77 1611.26 511.42C1609.76 509.86 1607.51 509.35 1605.39 508.92C1599.26 507.67 1592.91 506.42 1586.79 507.77C1580.68 509.11 1574.83 513.79 1574.2 520.02C1571.41 547.32 1567.6 574.52 1562.75 601.54C1562.38 603.62 1561.97 605.78 1560.71 607.48C1558.57 610.36 1554.66 611.13 1551.11 611.69C1546.1 612.47 1540.87 613.24 1536.04 611.69C1531.21 610.14 1526.96 605.51 1527.65 600.48C1538.79 519.45 1549.93 438.41 1561.07 357.37C1561.58 353.68 1562.26 349.65 1565.08 347.21C1567.84 344.82 1571.84 344.67 1575.49 344.64C1599.73 344.46 1623.96 344.28 1648.2 344.09C1659.57 344.01 1671.82 344.19 1681.01 350.89C1693.3 359.84 1695.7 376.95 1696.44 392.14C1697.36 411.22 1697.29 430.58 1692.67 449.11C1688.06 467.65 1678.5 485.46 1663.31 497.05C1658.66 500.6 1652.85 505.09 1654.14 510.8C1660.58 539.47 1667.03 568.14 1673.47 596.81ZM1583.95 456.57C1584.13 459.16 1585.18 462.45 1587.77 462.48C1597.89 462.57 1608.01 462.66 1618.13 462.75C1623.07 462.79 1628.13 462.82 1632.78 461.17C1638.97 458.97 1643.86 453.96 1647.12 448.26C1650.38 442.56 1652.2 436.16 1653.82 429.79C1654.74 426.17 1655.61 422.51 1655.72 418.78C1656.09 405.41 1645.06 392.69 1631.77 391.17C1629.9 390.96 1628 390.94 1626.11 390.92C1618.87 390.86 1611.63 390.79 1604.39 390.72C1601.72 390.7 1598.97 390.69 1596.49 391.67C1594.01 392.66 1591.83 394.89 1591.74 397.56C1591.43 407.22 1591.09 417.05 1587.94 426.19C1584.6 435.91 1583.23 446.31 1583.95 456.57Z" /><path fill-rule="evenodd" class="shp0" d="M761.48 598.23C762.33 602.04 762.98 606.6 760.18 609.32C758.08 611.36 754.83 611.5 751.89 611.51C744.63 611.53 737.37 611.56 730.1 611.58C727.96 611.59 725.64 611.54 723.93 610.24C722.12 608.85 721.51 606.44 721.01 604.21C714.6 575.6 708.19 546.99 701.77 518.37C700.44 512.43 694.56 508.38 688.57 507.29C682.58 506.2 676.44 507.47 670.48 508.74C668.52 509.16 666.41 509.66 665.13 511.2C664.07 512.47 663.79 514.2 663.55 515.84C659.41 544.31 655.27 572.78 651.14 601.25C650.35 606.67 645.19 610.61 639.83 611.76C634.47 612.9 628.91 611.83 623.54 610.77C621.34 610.33 619.01 609.83 617.42 608.25C614.93 605.76 615.23 601.71 615.72 598.22C626.8 518 637.89 437.77 648.98 357.54C649.57 353.27 650.52 348.42 654.22 346.2C656.42 344.87 659.13 344.81 661.7 344.79C686.53 344.54 711.37 344.3 736.21 344.05C747.05 343.95 758.65 344.06 767.61 350.16C779.88 358.53 783 375.06 784.19 389.86C785.68 408.34 785.78 427.13 781.67 445.21C777.55 463.29 768.93 480.73 755.09 493.08C748.81 498.69 740.69 505.28 742.53 513.51C748.85 541.75 755.16 569.99 761.48 598.23ZM678.47 408.16C678.61 425.81 668.62 443.02 671.93 460.35C672.29 462.24 674.76 462.66 676.68 462.67C686.57 462.67 696.46 462.68 706.35 462.69C710.73 462.69 715.18 462.68 719.37 461.4C729.74 458.22 736.29 447.93 739.91 437.7C742.69 429.85 744.29 421.36 742.81 413.16C741.32 404.96 736.36 397.11 728.79 393.63C723.49 391.2 717.46 391.06 711.63 390.97C705.67 390.87 699.71 390.78 693.75 390.68C689.28 390.61 684.22 390.77 681.17 394.04C677.81 397.65 678.43 403.24 678.47 408.16Z" /><path class="shp0" d="M1248.49 351.1C1252.41 416.33 1256.33 481.55 1260.25 546.78C1281.26 483.48 1302.27 420.17 1323.27 356.87C1324.65 352.72 1326.32 348.2 1330.13 346.06C1332.77 344.58 1335.94 344.54 1338.97 344.54C1348.36 344.54 1357.75 344.54 1367.14 344.53C1370.18 344.53 1373.66 344.73 1375.57 347.1C1377.31 349.26 1377.02 352.36 1376.64 355.11C1365.46 436.47 1354.28 517.83 1343.09 599.18C1342.65 602.44 1342.09 605.93 1339.82 608.3C1337.41 610.81 1333.69 611.44 1330.24 611.93C1325.71 612.58 1320.97 613.22 1316.63 611.76C1312.28 610.31 1308.49 606.08 1309.15 601.55C1315.29 559.44 1321.42 517.33 1327.56 475.22C1329.4 462.57 1331.23 449.55 1328.23 437.13C1310.88 492.34 1292.74 547.31 1273.81 601.99C1272.72 605.15 1271.43 608.56 1268.58 610.3C1266.24 611.73 1263.33 611.73 1260.59 611.68C1254.4 611.58 1248.2 611.48 1242.01 611.38C1239.05 611.34 1235.75 611.14 1233.74 608.98C1231.99 607.1 1231.77 604.31 1231.65 601.74C1229.03 548.59 1226.41 495.44 1223.79 442.29C1221.7 444.09 1218.32 444.17 1216.15 442.46C1209.63 493.91 1203.11 545.36 1196.58 596.81C1196.08 600.76 1195.46 604.97 1192.77 607.9C1189.05 611.95 1182.81 612.1 1177.3 611.95C1170.98 611.78 1162.41 609.16 1163.28 602.9C1173.39 530.36 1183.5 457.81 1193.61 385.27C1194.81 376.67 1196 367.89 1194.43 359.35C1168.39 440.6 1142.36 521.85 1116.32 603.1C1115.57 605.46 1114.73 607.95 1112.85 609.57C1110.37 611.71 1106.78 611.78 1103.51 611.74C1095.1 611.64 1086.68 611.54 1078.27 611.43C1075.97 611.41 1073.51 611.32 1071.68 609.95C1069.09 608.02 1068.73 604.34 1068.6 601.11C1066.34 546.37 1064.09 491.62 1061.83 436.87C1045.32 491.88 1028.82 546.88 1012.32 601.88C1011.35 605.08 1010.17 608.58 1007.3 610.29C1005.22 611.52 1002.68 611.56 1000.26 611.56C992.02 611.57 983.79 611.57 975.55 611.58C972.68 611.58 969.42 611.42 967.54 609.24C966.08 607.55 965.9 605.14 965.79 602.91C961.89 521.15 957.99 439.38 954.09 357.62C953.92 353.88 954 349.53 956.95 347.22C958.34 346.13 960.13 345.72 961.85 345.34C968.92 343.8 976.29 342.26 983.33 343.94C990.37 345.61 996.96 351.53 996.88 358.77C996.28 416.91 997.08 475.06 999.28 533.15C1012.62 487.8 1025.95 442.45 1039.29 397.1C1042.48 386.25 1045.67 375.39 1048.86 364.54C1050.35 359.47 1051.94 354.22 1055.51 350.32C1063.32 341.8 1076.84 343.06 1088.23 345C1090.41 345.37 1092.69 345.78 1094.39 347.18C1097.17 349.48 1097.5 353.55 1097.61 357.16C1099.38 416.64 1101.15 476.11 1102.92 535.58C1119.99 476.83 1137.06 418.09 1154.14 359.34C1156.09 352.61 1159.79 344.48 1166.8 344.49C1189.97 344.5 1213.13 344.52 1236.3 344.54C1241.41 344.54 1248.18 345.99 1248.49 351.1Z" /><path class="shp0" d="M605.8 396.97C592.79 396.58 579.77 396.19 566.75 395.81C551.81 395.36 535.21 395.5 524.22 405.62C519.18 410.27 515.95 416.54 513.15 422.8C497.37 458.03 491.74 497.74 497.1 535.96C498.24 544.04 500.15 552.62 506.13 558.16C513.36 564.86 524.25 565.17 534.1 565.09C540.66 565.04 547.22 565 553.78 564.95C556.28 564.93 558.94 564.86 560.99 563.42C563.75 561.49 564.45 557.76 564.92 554.42C567.1 539.16 569.27 523.89 571.44 508.63C571.92 505.28 571.24 500.5 567.86 500.5C557.95 500.53 548.04 500.55 538.13 500.57C534.83 500.58 531.14 500.43 528.85 498.06C526.39 495.51 526.56 491.49 526.9 487.97C527.6 480.73 528.29 473.49 528.99 466.25C529.35 462.44 530.02 458.1 533.22 456C535.3 454.63 537.94 454.58 540.43 454.58C561.82 454.56 583.21 454.54 604.6 454.52C606.6 454.51 608.71 454.54 610.43 455.57C614.15 457.79 614.04 463.12 613.46 467.41C607.47 511.72 601.49 556.03 595.51 600.34C595.04 603.81 594.33 607.69 591.47 609.7C589.38 611.16 586.67 611.24 584.13 611.28C562.32 611.56 540.51 611.84 518.7 612.12C506.91 612.28 494.51 612.28 484.19 606.57C468.58 597.91 462.29 578.86 459.14 561.29C448.74 503.4 458.34 442.12 485.92 390.18C495.79 371.59 509.42 353.01 529.54 346.85C538.82 344 548.7 344.07 558.4 344.17C578.95 344.37 599.5 344.57 620.05 344.77C622.41 344.79 625.14 345 626.52 346.92C627.56 348.36 627.46 350.29 627.32 352.05C626.66 360.29 626 368.52 625.34 376.75C624.78 383.64 623.6 391.59 617.64 395.1C614.15 397.16 609.85 397.1 605.8 396.97L605.8 396.97Z" /><path fill-rule="evenodd" class="shp0" d="M906.16 582.6C892.05 601.84 869.52 615.38 845.67 616.11C821.82 616.84 797.43 603.57 787.33 581.95C781.47 569.41 780.51 555.2 780.2 541.37C779.97 531.54 780.03 521.7 780.36 511.87C781.94 464.78 790.5 416.4 816.39 377.03C822.37 367.94 829.35 359.3 838.31 353.13C851.45 344.08 867.97 341.03 883.92 341.46C894.81 341.75 905.91 343.65 915.29 349.17C927.27 356.22 935.39 368.66 939.64 381.9C943.88 395.14 944.6 409.24 944.54 423.14C944.38 462.14 938.34 501.11 926.69 538.33C921.81 553.93 915.83 569.43 906.16 582.6ZM902.66 426.47C900.96 413.27 896.47 398.67 884.55 392.74C875.25 388.11 863.59 390.36 855.05 396.28C846.51 402.2 840.63 411.25 836.07 420.59C821.35 450.73 818.44 485.22 818.48 518.76C818.5 535.22 820.67 554.42 834.69 563.04C847.09 570.67 864.16 565.91 874.54 555.7C884.92 545.49 890 531.14 893.9 517.11C902.08 487.67 906.56 456.78 902.66 426.47Z" /><path fill-rule="evenodd" class="shp0" d="M1530.05 380.6C1532.81 389.16 1533.54 398.23 1533.94 407.22C1535.89 450.65 1530.74 494.4 1518.75 536.19C1516.22 544.99 1513.39 553.73 1509.57 562.05C1497.93 587.4 1475.8 609 1448.51 614.8C1421.23 620.61 1389.63 607.6 1378.58 581.98C1376.95 578.2 1375.77 574.25 1374.76 570.26C1366.07 536.02 1369.74 499.89 1375.69 465.07C1379.46 442.99 1384.19 420.85 1393.53 400.5C1402.87 380.15 1417.23 361.52 1436.69 350.43C1456.15 339.35 1481.08 336.74 1501.09 346.81C1514.69 353.65 1525.37 366.11 1530.05 380.6ZM1408.16 517.78C1408.24 532.47 1410.29 548.6 1421.07 558.58C1427.36 564.39 1436.2 567.33 1444.72 566.43C1455.58 565.28 1465.15 558.2 1471.52 549.33C1477.89 540.46 1481.46 529.91 1484.35 519.38C1491.33 493.99 1494.91 467.66 1494.95 441.32C1494.97 430.78 1494.37 419.98 1490.25 410.28C1486.13 400.58 1477.86 392.08 1467.48 390.27C1457.42 388.52 1447.06 393.35 1439.93 400.67C1432.81 407.98 1428.42 417.5 1424.75 427.03C1413.66 455.9 1408 486.85 1408.16 517.78Z" /><path class="shp0" d="M1692.59 536.71C1691 496.21 1697.07 455.42 1710.38 417.14C1720.43 388.24 1737.22 358.34 1766.07 348.17C1780.21 343.18 1795.6 343.6 1810.58 344.07C1820.01 344.37 1829.43 344.66 1838.86 344.96C1840.4 345.01 1842.09 345.12 1843.2 346.18C1844.5 347.42 1844.51 349.46 1844.42 351.26C1844.04 359.33 1843.66 367.4 1843.28 375.47C1843.03 380.9 1842.59 386.8 1838.97 390.86C1834.35 396.02 1826.47 396.21 1819.55 396.02C1807.31 395.67 1795.07 395.33 1782.83 394.98C1771.9 394.68 1761.77 401.55 1755.31 410.37C1748.85 419.2 1745.42 429.81 1742.09 440.23C1740.3 445.82 1740.61 454.59 1746.48 454.58C1771.67 454.56 1796.85 454.54 1822.03 454.53C1824.63 454.52 1827.59 454.68 1829.23 456.69C1830.66 458.44 1830.55 460.93 1830.36 463.17C1829.58 472.71 1828.8 482.24 1828.02 491.77C1827.83 494.12 1827.58 496.61 1826.12 498.45C1823.89 501.28 1819.76 501.53 1816.15 501.53C1790.84 501.55 1765.54 501.58 1740.23 501.6C1733.62 501.61 1731.69 510.55 1731.87 517.15C1732.15 527.3 1732.49 537.73 1736.59 547.02C1740.68 556.3 1749.49 564.26 1759.63 564.18C1773.81 564.07 1787.98 563.95 1802.16 563.84C1806.7 563.81 1812.1 564.24 1814.35 568.18C1815.64 570.42 1815.46 573.18 1815.24 575.75C1814.65 582.88 1814.06 590.02 1813.46 597.15C1813.09 601.64 1812.36 606.77 1808.6 609.26C1806.32 610.78 1803.41 610.94 1800.67 611.04C1789.56 611.46 1778.46 611.88 1767.36 612.3C1753.03 612.85 1738.01 613.25 1725.17 606.86C1713.04 600.82 1704.33 589.23 1699.44 576.59C1694.55 563.95 1693.13 550.25 1692.59 536.71Z" /></g><path class="shp4" d="M959.11 180.54C962.44 180.53 966.87 179.53 966.98 176.2C967.46 160.91 969.68 143.58 982.09 134.63C991.43 127.89 1003.88 127.97 1015.39 128.32C1017.87 128.39 1020.49 128.51 1022.55 129.89C1024.61 131.27 1025.71 134.38 1024.13 136.29C1017.67 144.05 1023.59 158.6 1015.25 164.3C1011.02 167.2 1005.37 165.95 1000.24 166.02C995.11 166.08 988.82 169.3 989.58 174.37C990.35 179.42 996.98 180.64 1002.09 180.64C1034.46 180.6 1066.83 180.57 1099.2 180.53C1100.95 180.53 1102.82 180.49 1104.25 179.48C1106.16 178.13 1106.62 175.55 1106.93 173.24C1110.99 143.06 1115.04 112.88 1119.09 82.71C1121.51 64.74 1125.77 44.04 1141.91 35.81C1145.92 40.09 1145.36 46.77 1144.54 52.57C1137.86 99.91 1131.18 147.25 1124.51 194.58C1123.42 202.29 1121.69 211 1115.03 215.02C1110.96 217.48 1105.93 217.56 1101.18 217.56C1019.9 217.58 938.63 217.6 857.35 217.63C851.9 217.63 847.38 212.89 845.8 207.68C844.22 202.47 844.91 196.88 845.62 191.48C852.47 139.43 859.32 87.39 866.16 35.34C875.49 36.64 882.3 45.5 884.31 54.7C886.31 63.9 884.56 73.46 882.91 82.73C877.64 112.4 873.42 142.26 870.28 172.24C870.05 174.41 869.9 176.84 871.27 178.55C872.85 180.53 875.75 180.69 878.28 180.69C905.22 180.64 932.17 180.59 959.11 180.54Z" /><path fill-rule="evenodd" class="shp4" d="M582.89 201.86C583.14 216.5 579.37 231.19 572.1 243.9C565.27 255.83 552.1 266.94 539.03 262.69C528.45 259.26 523.21 247.31 521.56 236.31C518.7 217.16 523.1 197.01 533.68 180.78C535.46 178.04 537.67 175.24 540.83 174.43C544 173.62 548.03 176.08 547.5 179.3C545.42 192.03 544.54 204.95 544.89 217.84C544.94 219.8 545.07 221.88 546.21 223.46C548.51 226.64 553.82 225.91 556.5 223.05C559.19 220.19 559.95 216.07 560.6 212.2C562.18 202.8 563.75 193.39 565.33 183.98C566.98 174.11 568.72 164.01 573.61 155.28C580.47 143.05 592.75 134.88 605.17 128.37C608 126.88 611.07 125.42 614.24 125.79C617.41 126.17 620.46 129.19 619.64 132.28C616.17 145.26 613.6 158.48 611.95 171.81C611.63 174.41 611.51 177.48 613.5 179.19C614.95 180.43 617.02 180.49 618.92 180.5C637.74 180.57 656.56 180.64 675.38 180.71C683.15 180.73 687.9 172.57 692.23 166.12C696.56 159.66 705.43 153.58 711.4 158.56C715.92 162.33 714.92 169.71 718.22 174.58C721.99 180.15 729.84 180.7 736.57 180.68C759.01 180.63 781.44 180.57 803.88 180.52C805.93 180.51 808.17 180.43 809.69 179.06C810.74 178.11 811.23 176.72 811.66 175.38C815.77 162.58 817.44 149.14 819.09 135.8C822.07 111.74 825.05 87.68 828.03 63.62C829.57 51.19 839.77 40.33 852.07 38.01C845.9 89.26 839.06 140.43 831.54 191.5C830.68 197.34 829.76 203.32 826.91 208.48C824.05 213.63 818.8 217.89 812.9 217.85C786.24 217.67 759.57 217.48 732.91 217.3C724.39 217.24 713.92 218.41 710.67 226.27C708.17 232.32 701.7 236.49 695.16 236.28C688.62 236.06 682.45 231.48 680.35 225.28C678.01 218.38 668.89 217.23 661.61 217.3C639.89 217.51 618.18 217.72 596.46 217.92C589.49 217.99 586.97 208.59 587.92 201.68C588.88 194.77 590.64 186.47 585.41 181.85C581.92 187.71 582.77 195.04 582.89 201.86ZM696.92 192.73C693.75 193.56 693.66 197.98 694.27 201.19C694.61 202.98 695.47 205.22 697.29 205.16C699.29 203.14 701.39 200.91 701.75 198.09C702.11 195.27 699.66 192.01 696.92 192.73ZM589.12 181.01C589.74 182.65 592.34 183 593.37 181.59C594.4 180.19 593.28 177.81 591.53 177.72C590.31 178.46 589.38 179.68 589 181.06L589.12 181.01Z" /><path class="shp4" d="M1188.47 253.47C1184.11 261.96 1171.29 264.48 1164.04 258.28C1156.79 252.07 1157.3 239.02 1165 233.4C1174.26 226.64 1174.11 213.16 1174.71 201.71C1175.5 186.56 1179.22 171.57 1185.62 157.82C1187.46 153.87 1189.67 149.85 1193.36 147.54C1197.04 145.22 1202.58 145.32 1205.13 148.85C1208.73 153.81 1204.35 160.37 1201.29 165.67C1198.23 170.98 1198.6 180.37 1204.73 180.39C1232.96 180.5 1261.2 180.6 1289.43 180.71C1293.48 180.72 1297.68 180.71 1301.35 179.02C1305.03 177.33 1308.03 173.46 1307.37 169.47C1305 155.21 1311.62 139.86 1323.6 131.8C1325.68 130.4 1328.76 129.32 1330.43 131.18C1331.52 132.39 1331.38 134.23 1331.17 135.84C1328.9 153.21 1326.63 170.57 1324.36 187.94C1323.02 198.17 1320.76 209.84 1311.81 214.97C1306.68 217.91 1300.43 217.95 1294.51 217.9C1265.67 217.68 1236.83 217.45 1207.98 217.23C1204.85 217.2 1201.59 217.21 1198.77 218.56C1193.06 221.31 1191.14 228.48 1190.9 234.81C1190.66 241.14 1191.37 247.84 1188.47 253.47Z" /><path class="shp4" d="M628.4 669.22C631.7 668.88 634.81 671.19 636.44 674.09C638.06 676.98 638.5 680.36 638.91 683.65C640.54 696.76 642.16 709.88 643.79 722.99C646.72 710.74 647.68 698.09 647.63 685.5C647.62 681.31 647.55 676.88 649.66 673.26C651.77 669.64 656.97 667.47 660.28 670.04C662.22 671.54 662.93 674.13 663.27 676.56C665.15 690.03 659.33 703.26 657.59 716.74C656.69 723.74 656.89 730.83 656.54 737.88C655.87 751.49 653.13 765 648.46 777.8C646.88 782.14 640.01 781.88 637.02 778.37C634.03 774.85 633.81 769.84 633.64 765.23C633.16 752.41 631.92 739.62 629.95 726.94C622.14 742.41 630.62 762.72 621.88 777.68C620.62 779.84 618.75 781.97 616.26 782.18C613.61 782.42 611.21 780.29 610.25 777.81C609.29 775.33 609.44 772.58 609.63 769.93C610.73 754.59 612.67 739.32 614.61 724.07C615.18 719.65 615.74 715.24 616.3 710.82C617.5 701.42 618.69 692.02 619.89 682.61C620.61 676.92 622.7 669.81 628.4 669.22L628.4 669.22Z" /><path class="shp4" d="M847.87 675.34C848.4 673.7 849 672 850.23 670.8C852.99 668.11 857.93 669.15 860.48 672.03C863.04 674.91 863.75 678.96 864 682.8C864.85 696.01 861.68 710.09 867.43 722.01C868.98 709.22 870.52 696.42 872.07 683.63C872.57 679.51 873.21 675.07 876.09 672.07C878.96 669.08 884.89 668.81 886.67 672.56C887.35 673.99 887.29 675.65 887.22 677.24C886.91 683.59 886.6 689.95 886.29 696.31C886.05 701.12 885.82 705.94 885.21 710.73C883.41 724.87 878.33 738.66 878.63 752.91C878.84 762.45 880.82 773.74 873.65 780.03C871.56 781.87 868.34 782.95 866 781.44C864.2 780.29 863.52 778.03 862.98 775.96C858.93 760.44 855.33 744.82 852.17 729.1C849.34 740.5 848.85 752.37 849.25 764.11C849.42 768.83 849.64 773.9 847.11 777.89C844.59 781.89 838.09 783.62 835.19 779.89C834.15 778.56 833.78 776.84 833.57 775.17C831.63 759.58 841.06 744.52 840.48 728.82C839.81 710.75 842.33 692.56 847.87 675.34Z" /><path class="shp4" d="M434.31 669.05C437.91 669.92 439.89 674.03 439.82 677.74C439.74 681.45 438.17 684.93 437.05 688.47C433.85 698.57 434.26 709.39 433.73 719.98C432.78 738.51 428.82 756.74 424.87 774.88C424.44 776.88 423.93 779 422.45 780.41C419.39 783.3 413.95 781.24 411.88 777.58C409.81 773.92 410.05 769.46 410.12 765.26C410.28 754.95 409.03 744.62 406.41 734.65C403.55 747.54 400.7 760.43 397.85 773.31C397.15 776.46 396.01 780.13 392.93 781.12C389.48 782.22 385.95 778.84 385.29 775.27C384.63 771.7 385.87 768.1 386.66 764.55C389.52 751.73 386.57 738.25 388.55 725.26C390.21 714.36 395.31 704 395.31 692.98C395.3 687.69 394.12 682.27 395.54 677.17C396.95 672.07 402.47 667.49 407.32 669.62C412.95 672.09 412.33 680.05 412.05 686.2C411.76 692.46 412.85 698.79 415.2 704.61C414.46 702.56 417.12 700.99 419.26 700.58C421.39 700.17 424.15 699.32 424.15 697.14C424.15 692.9 424.15 688.65 424.14 684.41C424.14 680.85 424.17 677.14 425.72 673.94C427.28 670.73 430.85 668.21 434.31 669.05Z" /><path class="shp4" d="M232.48 778.74C230.03 782.6 223.59 781.54 220.81 777.91C218.02 774.28 217.82 769.36 217.68 764.78C217.29 751.95 216.44 739.14 215.14 726.37C212.84 726.96 212.05 729.77 211.76 732.13C210.06 746.38 212.43 761.41 207.07 774.73C206.12 777.08 204.85 779.45 202.71 780.83C200.57 782.2 197.38 782.2 195.77 780.24C194.73 778.95 194.56 777.18 194.47 775.53C193.47 758.19 195.12 740.69 199.37 723.84C202.28 712.26 202.65 700.2 202.56 688.26C202.53 683.31 202.51 678.04 205.19 673.88C207.87 669.73 214.38 667.7 217.82 671.26C219.46 672.96 219.98 675.42 220.43 677.74C223.33 692.71 226.24 707.69 229.14 722.67C230.32 707.99 231.5 693.31 232.68 678.63C232.92 675.72 233.3 672.5 235.48 670.56C238.7 667.7 244.25 669.53 246.52 673.19C248.79 676.85 248.6 681.5 247.89 685.75C246.38 694.77 242.87 703.37 241.58 712.41C240.49 720.1 241.03 727.91 240.69 735.67C240.1 749.16 236.88 762.37 233.66 775.49C233.39 776.61 233.1 777.76 232.48 778.74Z" /><path class="shp4" d="M1441.83 686.62C1441.76 682.98 1441.49 679.25 1442.61 675.79C1443.73 672.33 1446.65 669.14 1450.28 669.01C1456.31 668.78 1459.45 676.29 1459.41 682.32C1459.36 688.36 1458.1 695.12 1461.85 699.85C1463.6 702.06 1465.35 704.28 1467.11 706.49C1469.9 701.38 1471.33 695.52 1471.2 689.7C1471.11 685.39 1470.19 681.02 1471.11 676.8C1472.03 672.59 1475.67 668.48 1479.95 669.03C1484.07 669.56 1486.57 674.18 1486.51 678.33C1486.45 682.49 1484.59 686.37 1483.27 690.31C1477.16 708.64 1482.8 729.16 1477.6 747.77C1475.98 753.57 1473.31 759.18 1472.99 765.19C1472.68 771.11 1473.78 778.8 1468.42 781.31C1464.38 783.2 1459.49 779.95 1457.81 775.82C1456.13 771.68 1456.67 767.04 1456.87 762.59C1457.34 752.3 1455.82 741.92 1452.44 732.2C1451.02 747.53 1447.94 762.7 1443.29 777.38C1442.9 778.59 1442.47 779.85 1441.55 780.73C1439.33 782.81 1435.4 781.41 1433.85 778.8C1432.3 776.19 1432.44 772.95 1432.62 769.92C1433.33 758.27 1434.04 746.63 1434.75 734.98C1435.07 729.69 1435.4 724.33 1437.03 719.29C1440.44 708.77 1442.07 697.67 1441.83 686.62Z" /><path class="shp4" d="M1750.29 744.61C1745.92 753.64 1748.23 764.37 1746.66 774.28C1746.24 776.93 1745.38 779.76 1743.17 781.27C1739.24 783.94 1733.6 780.56 1731.91 776.12C1730.21 771.68 1731.05 766.74 1731.15 761.99C1731.3 755.24 1729.87 748.46 1727.01 742.35C1720.44 751.26 1717.27 762.62 1718.29 773.64C1718.69 777.98 1714.34 782.09 1710.03 781.44C1705.72 780.79 1702.77 775.59 1704.43 771.56C1711.14 755.24 1706.76 736.56 1709.68 719.16C1711.55 708.02 1716.43 697.31 1716.26 686.02C1716.17 679.84 1715.58 671.8 1721.29 669.46C1725.87 667.57 1731.05 671.69 1732.51 676.43C1733.98 681.17 1732.98 686.26 1732.73 691.22C1732.39 697.98 1733.48 704.81 1735.92 711.13C1737.93 707.09 1738.98 702.57 1738.96 698.05C1740.35 697.72 1741.74 697.39 1743.13 697.06C1743.89 690.28 1744.65 683.49 1745.41 676.71C1745.88 672.48 1750.1 669.05 1754.33 669.45C1758.56 669.84 1762.07 674 1761.75 678.23C1759.95 678.14 1758.14 678.04 1756.34 677.95C1755.71 692.48 1755.09 707.01 1754.46 721.54C1754.12 729.41 1753.72 737.53 1750.29 744.61L1750.29 744.61Z" /><path class="shp4" d="M1234.26 672.93C1236.08 669.95 1240.32 668.74 1243.44 670.33C1246.56 671.91 1248.1 676.04 1246.77 679.28C1238.79 698.67 1245.77 721.5 1239.06 741.37C1235.28 752.55 1234.89 764.54 1234.52 776.33C1234.39 780.81 1228.33 783.24 1224.34 781.18C1220.36 779.13 1218.51 774.35 1218.24 769.87C1217.97 765.4 1218.92 760.94 1218.9 756.45C1218.87 751.97 1217.61 747.11 1214.02 744.44C1207.45 751.87 1204.58 762.41 1206.47 772.15C1207.41 777.04 1202.57 782.11 1197.64 781.4C1192.71 780.68 1189.52 774.44 1191.82 770.02C1195.75 762.47 1195.72 753.57 1196.06 745.07C1197.01 720.84 1201.58 696.93 1206.13 673.12C1207.1 668.09 1215.19 668.15 1218.22 672.28C1221.25 676.41 1220.81 682.01 1220.68 687.13C1220.46 695.44 1221.41 703.78 1223.49 711.83C1225.25 707.31 1227.01 702.79 1228.76 698.27C1230.71 693.27 1232.67 688.16 1232.88 682.81C1233.01 679.44 1232.5 675.81 1234.26 672.93Z" /><path class="shp4" d="M1015.76 669.23C1020.18 667.39 1024.92 672.25 1025.28 677.02C1025.65 681.8 1023.34 686.31 1021.98 690.91C1019.3 699.93 1020.24 709.57 1019.81 718.97C1019.45 727.02 1018.07 734.98 1016.69 742.92C1014.88 753.36 1013.06 763.8 1011.25 774.24C1010.78 776.96 1010.1 780 1007.75 781.46C1004.91 783.22 1000.96 781.56 999.09 778.79C997.22 776.02 996.88 772.53 996.59 769.21C995.69 758.56 994.78 747.92 993.88 737.27C988.4 748.16 984.92 760.04 983.65 772.16C983.27 775.73 982.61 780.02 979.31 781.41C975.78 782.89 971.78 779.54 970.94 775.8C970.1 772.07 971.35 768.23 972.22 764.5C976.05 748.07 972.61 730.59 976.54 714.18C978.18 707.34 981.1 700.73 981.41 693.7C981.66 687.82 980.1 681.73 981.95 676.15C983.81 670.56 991.64 666.51 995.56 670.9C997.3 672.83 997.56 675.63 997.74 678.23C998.42 688.13 999.1 698.02 999.78 707.92C1003.22 706.42 1005.21 702.22 1004.21 698.61C1005.77 699.19 1007.33 699.77 1008.89 700.35C1009.56 693.31 1010.23 686.27 1010.9 679.24C1011.27 675.35 1012.15 670.73 1015.76 669.23Z" /><path fill-rule="evenodd" class="shp4" d="M1121.99 703.83C1123.38 697.95 1122.1 691.79 1122.13 685.74C1122.16 679.69 1124.12 672.88 1129.54 670.2C1132.73 668.61 1136.48 668.8 1140.04 669.02C1143.95 669.27 1148 669.55 1151.46 671.39C1159.31 675.57 1161.2 685.87 1161.42 694.76C1161.63 703.24 1160.9 712.39 1155.5 718.92C1152.42 722.64 1152.37 727.93 1152.47 732.76C1152.77 747.18 1153.07 761.6 1153.37 776.02C1153.45 780.2 1148.29 783.04 1144.33 781.75C1140.36 780.46 1137.89 776.35 1137.13 772.25C1136.38 768.14 1137 763.93 1137.25 759.77C1137.68 752.9 1137.11 745.98 1135.59 739.27C1131.4 739.24 1130.66 745.17 1130.98 749.34C1131.6 757.36 1130.78 765.49 1128.57 773.23C1127.83 775.82 1126.87 778.48 1124.92 780.34C1122.97 782.21 1119.78 783.03 1117.52 781.55C1115.08 779.95 1114.72 776.56 1114.65 773.64C1114.11 750.19 1116.58 726.66 1121.99 703.83ZM1138.52 711.85C1138.91 713.61 1141.58 713.91 1142.94 712.72C1144.29 711.52 1144.64 709.56 1144.82 707.76C1145.31 702.85 1145.23 697.89 1144.56 693C1144.26 690.77 1142.99 687.93 1140.79 688.35C1137.57 695.67 1136.76 704.04 1138.52 711.85Z" /><path fill-rule="evenodd" class="shp4" d="M337.53 780.36C335.85 778.54 335.71 775.81 335.67 773.32C335.37 756.51 335.11 739.45 339.44 723.2C342.51 711.71 343.93 699.78 343.64 687.89C343.51 682.74 343.3 676.91 346.91 673.23C353.31 666.71 364.62 666.73 372.04 672.05C379.46 677.38 383.11 686.89 382.98 696.02C382.85 705.15 379.36 713.94 374.81 721.85C372.16 726.44 372.74 732.12 373.22 737.39C374.28 749.06 374.51 760.81 373.89 772.52C373.72 775.68 373.28 779.24 370.75 781.15C367.47 783.62 362.4 781.58 360.24 778.08C358.08 774.58 358.02 770.23 358.03 766.11C358.05 759.74 358.06 753.36 358.07 746.98C358.08 743.55 356.7 738.82 353.31 739.34C352.16 748.52 351.34 757.74 350.83 766.98C350.61 771.02 350.37 775.32 348 778.61C345.63 781.89 340.28 783.34 337.53 780.36ZM361.49 713.68C363.76 713.97 365.19 711.3 365.68 709.06C367.24 701.84 366.04 694.05 362.38 687.63C359.06 694.09 357.64 701.51 358.34 708.74C358.55 710.85 359.39 713.42 361.49 713.68Z" /><path fill-rule="evenodd" class="shp4" d="M1416.42 767.5C1412.86 774.73 1407.2 782.35 1399.15 782.66C1392.75 782.91 1387 778.11 1384.22 772.34C1381.44 766.57 1381.05 759.97 1380.88 753.57C1380.55 741.4 1380.83 729.21 1381.72 717.07C1382.01 713.02 1382.38 708.95 1383.24 704.98C1384.67 698.41 1387.44 692.22 1390.18 686.08C1392.57 680.74 1395.15 675.16 1399.88 671.72C1406.62 666.8 1417.06 667.99 1422.53 674.29C1427.6 680.14 1428.05 688.57 1428.18 696.32C1428.43 712.19 1428.38 728.22 1424.86 743.69C1422.99 751.93 1420.16 759.93 1416.42 767.5ZM1403.86 758.42C1405.63 756.62 1404.42 753.5 1405.31 751.14C1412.03 733.48 1414.08 714.06 1411.18 695.39C1410.87 693.37 1409.9 690.85 1407.87 690.93C1399.67 697.26 1398.57 709.01 1398.16 719.36C1397.75 729.72 1397.34 740.09 1396.92 750.45C1396.83 752.75 1396.78 755.21 1398 757.15C1399.23 759.1 1402.25 760.06 1403.86 758.42Z" /><path class="shp4" d="M1165.08 45.55C1166.77 43.17 1168.77 40.81 1171.52 39.81C1174.26 38.81 1177.89 39.7 1179.03 42.39C1179.65 43.85 1179.45 45.51 1179.23 47.08C1172.44 97.2 1165.64 147.32 1158.85 197.44C1158.05 203.34 1157.06 209.65 1153.01 214.01C1148.96 218.37 1140.71 219.23 1137.59 214.16C1135.85 211.33 1136.23 207.75 1136.67 204.46C1142.15 163.49 1147.62 122.52 1153.1 81.56C1153.94 75.26 1154.79 68.93 1156.62 62.84C1158.48 56.67 1161.35 50.81 1165.08 45.55L1165.08 45.55Z" /><path fill-rule="evenodd" class="shp4" d="M573.25 782.14C564.99 780.55 560.25 771.63 558.84 763.34C557.82 757.34 557.91 751.22 558 745.14C558.16 734.9 558.32 724.62 559.92 714.5C561.12 706.9 563.12 699.43 565.57 692.13C567.8 685.45 570.55 678.67 575.64 673.79C580.72 668.91 588.7 666.41 595.01 669.55C603.42 673.74 604.9 684.92 605.16 694.32C605.8 718.12 605.42 742.71 595.96 764.57C593.9 769.33 591.35 774 587.51 777.49C583.67 780.97 578.34 783.13 573.25 782.14ZM588.97 700.96C589.04 696.74 588.76 691.8 585.29 689.4C582.64 692.87 580.81 696.89 579.37 701.01C573.45 717.9 573.87 736.25 574.35 754.14C574.4 755.76 574.48 757.5 575.47 758.79C576.45 760.08 578.7 760.49 579.63 759.16C587.97 747.18 588.5 731.61 588.72 717.02C588.81 711.66 588.89 706.31 588.97 700.96Z" /><path class="shp4" d="M1583.08 676.24C1583.57 679.95 1581.5 683.45 1580.09 686.92C1576.44 695.93 1577.06 705.99 1576.88 715.71C1576.58 731.66 1573.94 747.55 1569.06 762.74C1566.67 770.2 1563.11 778.18 1555.96 781.41C1552.45 783 1548.33 783.2 1544.68 781.96C1538.9 780.01 1534.74 774.7 1532.73 768.94C1530.72 763.19 1530.55 756.96 1530.61 750.87C1530.66 745.68 1530.86 740.49 1531.5 735.35C1533.4 720.32 1539.18 705.7 1538.49 690.57C1538.26 685.69 1537.39 680.65 1538.97 676.03C1540.55 671.4 1545.84 667.55 1550.26 669.63C1554.7 671.72 1555.14 677.75 1554.95 682.65C1554.66 689.89 1554.37 697.15 1553.34 704.33C1550.62 723.4 1542.81 742.99 1548.91 761.26C1559.95 752.04 1559.69 735.43 1560.13 721.06C1560.61 705.52 1563 690.04 1567.24 675.09C1568.24 671.53 1571.94 668.94 1575.63 669.21C1579.31 669.48 1582.6 672.57 1583.08 676.24Z" /><path fill-rule="evenodd" class="shp4" d="M669.57 733.64C670.7 728.47 671.85 723.24 674.07 718.43C675.59 715.15 676.36 711.58 677.12 708.05C678.73 700.51 680.35 692.98 681.97 685.44C682.82 681.48 683.71 677.4 685.97 674.03C688.23 670.66 692.2 668.12 696.21 668.76C699.9 669.34 702.77 672.49 704.1 675.98C705.44 679.47 705.51 683.29 705.57 687.03C705.98 713.2 706.39 739.37 706.8 765.54C706.87 769.89 706.85 774.53 704.47 778.16C702.09 781.8 696.37 783.55 693.34 780.44C692 779.06 691.47 777.08 691.26 775.17C690.9 771.91 691.3 768.58 690.82 765.33C690.34 762.08 688.71 758.7 685.68 757.44C682.64 756.18 678.36 758.34 678.57 761.61C678.94 767.47 677.2 773.44 673.74 778.18C671.65 781.05 667.89 783.63 664.78 781.92C662.14 780.47 661.77 776.87 661.93 773.86C662.31 766.76 663.84 759.78 665.36 752.84C666.76 746.44 668.17 740.04 669.57 733.64ZM688.39 710.75C686.53 717.4 685.67 724.34 685.85 731.24C685.89 732.64 686.01 734.15 686.9 735.23C687.78 736.32 689.72 736.62 690.51 735.47C690.86 734.96 690.91 734.31 690.95 733.69C691.44 725.92 691.84 717.73 688.39 710.75Z" /><path fill-rule="evenodd" class="shp4" d="M1660.3 736.48C1666.19 727.65 1662.11 714.86 1667.81 705.9C1670.85 701.12 1671.41 695.23 1672.07 689.6C1672.72 683.97 1673.69 678.05 1677.31 673.69C1680.93 669.32 1688.09 667.41 1692.33 671.18C1695.74 674.21 1695.95 679.37 1695.92 683.93C1695.7 713.16 1695.47 742.4 1695.25 771.64C1695.23 774.83 1695.04 778.4 1692.7 780.57C1689.65 783.4 1684.3 782.04 1681.78 778.73C1679.26 775.41 1678.98 770.92 1679.4 766.78C1679.64 764.37 1680.07 761.79 1679.01 759.61C1677.95 757.42 1674.63 756.23 1673.08 758.1C1668.95 763.1 1666.21 769.24 1665.25 775.65C1664.73 779.15 1661.52 782.06 1657.98 782.24C1654.44 782.41 1650.96 779.83 1650.09 776.4C1648.8 771.25 1652.83 766.48 1654.75 761.53C1657.86 753.48 1655.52 743.66 1660.3 736.48ZM1673.85 729.34C1673.97 731.27 1674.1 733.2 1674.22 735.13C1674.3 736.29 1676 736.71 1676.96 736.06C1677.93 735.4 1678.31 734.18 1678.62 733.05C1679.11 731.26 1679.6 729.31 1678.85 727.61C1678.11 725.92 1675.54 725 1674.38 726.45C1673.75 727.23 1673.78 728.34 1673.85 729.34Z" /><path class="shp4" d="M914.56 757.95C917.63 751.59 920.7 744.01 917.35 737.79C914.62 732.72 913.99 726.21 916.96 721.27C919.94 716.34 927.01 713.9 931.87 717.01C935.59 719.39 937.12 724.18 936.97 728.59C936.81 733 935.26 737.22 934.09 741.47C932.39 747.61 931.43 753.95 931.25 760.32C931.1 765.73 931.41 771.5 928.6 776.12C923.4 784.68 909.72 784.14 902.41 777.3C895.1 770.46 892.83 759.84 892.05 749.87C890.72 732.87 892.63 715.62 897.67 699.32C901.41 687.21 907.88 674.61 919.62 669.8C924.4 667.84 930.15 667.46 934.55 670.17C938.94 672.88 941.15 679.26 938.25 683.54C934.79 688.65 927 688.17 922 691.79C920.09 693.17 918.65 695.1 917.4 697.1C907.22 713.3 907.56 733.75 908.53 752.86C908.62 754.67 908.77 756.63 909.96 758.01C911.14 759.38 913.76 759.58 914.56 757.95L914.56 757.95Z" /><path class="shp4" d="M1272.91 758.83C1277.27 758.15 1278.37 752.44 1278.31 748.04C1278.24 742.84 1277.69 736.96 1273.61 733.73C1269.13 730.17 1272.41 722.81 1276.78 719.12C1279.38 716.92 1282.59 715.02 1285.98 715.39C1289.79 715.81 1292.79 719.11 1293.98 722.75C1295.18 726.4 1294.91 730.34 1294.53 734.15C1293.31 746.52 1291.07 758.78 1287.84 770.77C1287.1 773.49 1286.28 776.27 1284.55 778.5C1281.35 782.61 1275.42 783.97 1270.37 782.67C1265.32 781.37 1261.1 777.81 1257.93 773.67C1247.65 760.27 1247.54 741.71 1250.13 725.02C1251.34 717.24 1253.04 709.54 1255.2 701.98C1257.29 694.71 1259.86 687.47 1264.2 681.28C1268.55 675.1 1274.88 670.01 1282.29 668.52C1288.52 667.27 1296.53 670.01 1297.4 676.31C1298.33 683.09 1290.82 687.63 1284.54 690.36C1278.26 693.09 1270.87 698.05 1272.32 704.75C1273.27 709.18 1269.24 712.92 1267.15 716.94C1264.83 721.42 1264.87 726.7 1264.97 731.75C1265.07 736.83 1265.17 741.91 1265.27 746.99C1265.32 749.66 1265.4 752.44 1266.55 754.86C1267.71 757.27 1270.27 759.24 1272.91 758.83Z" /><path class="shp4" d="M1850.94 51.76C1852.33 47.46 1854.27 42.82 1858.33 40.84C1862.4 38.86 1868.67 41.92 1867.78 46.36C1857.87 95.76 1851.89 145.96 1849.92 196.32C1849.71 201.82 1849.46 207.6 1846.62 212.32C1843.78 217.04 1837.38 220.11 1832.59 217.39C1827.06 214.27 1827.19 206.4 1828.04 200.11C1832.6 166.38 1837.16 132.66 1841.72 98.93C1843.87 83.04 1846.04 67.04 1850.94 51.76Z" /><path fill-rule="evenodd" class="shp4" d="M447.75 779.67C445.26 782.38 440.66 782.79 437.72 780.57C434.79 778.34 433.94 773.8 435.88 770.66C438.58 766.3 439.67 761.16 440.7 756.13C443.11 744.49 445.51 732.85 447.91 721.22C448.49 718.42 449.09 715.57 450.47 713.07C454.05 706.62 454.35 698.94 455.74 691.7C456.42 688.14 457.39 684.63 458.63 681.22C460.07 677.24 462.03 673.21 465.5 670.8C468.98 668.39 474.33 668.24 477.04 671.49C479.01 673.85 479.11 677.2 479.11 680.28C479.13 710.21 479.15 740.15 479.17 770.09C479.18 774.58 478.47 780.15 474.26 781.69C470.61 783.03 466.58 780.11 465.03 776.55C463.48 772.99 463.63 768.96 463.25 765.1C462.87 761.23 461.68 757.06 458.45 754.92C455.74 761.6 453.04 768.29 450.34 774.98C449.67 776.65 448.97 778.35 447.75 779.67ZM463.17 730.26C463.05 731.19 462.94 732.16 463.29 733.03C463.82 734.35 465.52 735.08 466.85 734.54C468.59 727.11 468.14 719.18 465.56 712.01C464.76 718.09 463.97 724.18 463.17 730.26Z" /><path class="shp4" d="M829.56 686.37C821.29 688 814.57 695.59 813.96 704.01C813.7 707.6 815.33 712.1 818.93 712.35C823.83 712.71 828.04 717.3 827.97 722.21C827.91 727.13 823.57 731.6 818.66 731.82C813.86 732.03 811.85 737.93 811.06 742.66C810.46 746.25 809.87 749.98 810.83 753.48C811.8 756.99 814.78 760.23 818.42 760.25C822.92 760.28 826.56 764.84 826.46 769.35C826.36 773.85 823.23 777.9 819.3 780.1C815.37 782.31 810.75 782.94 806.24 783.05C802.02 783.16 797.59 782.78 794.03 780.51C790.48 778.24 788.14 773.6 789.7 769.67C798.28 748.07 793.5 723.41 799.08 700.84C800.5 695.12 802.59 689.49 802.79 683.6C802.94 679.53 802.39 674.85 805.29 671.99C807.22 670.08 810.14 669.64 812.84 669.31C816.94 668.8 821.14 668.3 825.17 669.2C829.2 670.09 833.11 672.67 834.45 676.58C835.79 680.49 833.61 685.57 829.56 686.37Z" /><path class="shp4" d="M1055.65 713.55C1059.24 713.51 1062.73 715.98 1063.88 719.38C1065.04 722.78 1063.78 726.86 1060.91 729.02C1058.73 730.65 1055.93 731.15 1053.47 732.31C1049.81 734.02 1046.9 737.26 1045.59 741.08C1043.82 744.71 1042 748.58 1042.43 752.6C1042.85 756.61 1046.54 760.55 1050.48 759.68C1053.95 758.91 1057.33 762.01 1058.19 765.46C1059.06 768.91 1058.11 772.53 1057.17 775.96C1056.69 777.68 1056.17 779.5 1054.86 780.72C1053.11 782.36 1050.47 782.48 1048.07 782.52C1043.48 782.58 1038.88 782.64 1034.28 782.71C1030.4 782.76 1027.15 779.38 1026.05 775.66C1024.94 771.93 1025.5 767.95 1026.06 764.11C1030.14 736.61 1034.7 709.08 1035.18 681.3C1035.26 676.71 1038.9 672.78 1043.11 670.98C1047.33 669.17 1052.06 669.07 1056.64 669.07C1062.59 669.07 1070.33 670.71 1071.01 676.62C1071.53 681.2 1067.07 684.75 1062.83 686.58C1058.6 688.41 1053.69 689.82 1051.31 693.77C1049.55 696.69 1049.62 700.32 1049.74 703.73C1049.9 707.98 1051.39 713.61 1055.65 713.55Z" /><path class="shp4" d="M314.69 699.85C314.54 703.24 314.7 706.75 316.2 709.79C317.7 712.82 320.85 715.25 324.23 714.99C327.91 714.71 330.34 719.45 329.16 722.94C327.98 726.44 324.59 728.67 321.26 730.27C317.94 731.87 314.33 733.21 311.84 735.93C307.82 740.32 307.82 746.94 308.05 752.89C308.15 755.59 309.16 759.18 311.86 759.05C316.34 758.84 320.82 761.54 322.72 765.61C324.62 769.68 323.82 774.85 320.78 778.16C316.36 782.96 308.95 783.09 302.42 782.88C299.06 782.77 295.28 782.47 293.09 779.92C291.51 778.07 291.17 775.5 291.01 773.07C289.29 747.24 299.91 721.9 299.19 696.02C299.05 690.95 298.48 685.81 299.57 680.86C300.66 675.91 303.86 671.03 308.75 669.67C312.67 668.57 316.83 669.9 320.9 669.87C324.25 669.85 327.86 668.95 330.79 670.59C334.25 672.53 335.07 677.53 333.28 681.07C331.49 684.6 327.76 686.8 323.96 687.9C322.18 688.42 320.3 688.76 318.76 689.8C315.64 691.89 314.86 696.1 314.69 699.85L314.69 699.85Z" /><path class="shp4" d="M1093.1 759.64C1095.75 758.58 1098.88 760.16 1100.41 762.56C1101.94 764.96 1102.2 767.95 1102.15 770.79C1102.1 773.56 1101.73 776.49 1100.05 778.69C1097.45 782.08 1092.68 782.69 1088.42 783.03C1082.18 783.52 1074.56 783.33 1071.46 777.9C1070.15 775.61 1070.01 772.86 1069.99 770.23C1069.75 740.47 1080.84 711.23 1078.61 681.55C1078.25 676.73 1082.12 672.4 1086.62 670.63C1091.12 668.85 1096.12 669.05 1100.95 669.28C1105.58 669.51 1111.2 670.39 1112.9 674.71C1114.45 678.65 1111.52 683.02 1108.03 685.42C1104.54 687.82 1100.33 689.2 1097.29 692.15C1093.67 695.65 1092.22 701.21 1093.66 706.02C1095.09 710.83 1099.36 714.69 1104.29 715.63C1107.76 716.29 1109.11 721 1107.58 724.18C1106.05 727.35 1102.72 729.22 1099.49 730.64C1096.27 732.07 1092.82 733.36 1090.46 735.98C1086.9 739.95 1086.77 745.82 1086.84 751.15C1086.87 753.23 1086.92 755.41 1087.91 757.24C1088.9 759.08 1091.17 760.41 1093.1 759.64Z" /><path class="shp4" d="M1518.2 688.05C1510.89 689.23 1507.53 698.43 1509.1 705.67C1510.67 712.91 1515.45 718.96 1518.62 725.66C1525.25 739.68 1524.38 756.99 1516.38 770.28C1513.5 775.04 1509.61 779.42 1504.51 781.64C1499.4 783.85 1492.94 783.49 1488.83 779.73C1485.22 776.43 1484.03 770.74 1486.01 766.26C1488 761.78 1493.01 758.85 1497.88 759.3C1503.85 759.85 1508 752.69 1507.18 746.76C1506.36 740.83 1502.45 735.88 1499.48 730.68C1491.13 716.05 1490.05 697.5 1496.65 682C1498.49 677.68 1501 673.47 1504.81 670.72C1510.3 666.77 1518.87 666.88 1523.2 672.08C1527.53 677.27 1524.87 686.97 1518.2 688.05L1518.2 688.05Z" /><path class="shp4" d="M1359.39 706.94C1355.83 717.93 1354.05 729.49 1354.14 741.04C1354.19 747.83 1355.74 755.87 1361.96 758.59C1367.12 760.86 1371.05 766.14 1370.93 771.78C1370.8 777.42 1366.07 782.81 1360.43 782.94C1356.78 783.03 1353.35 781.1 1350.58 778.72C1339.54 769.24 1336.88 753.22 1337.29 738.68C1337.73 723.2 1340.83 707.8 1346.42 693.35C1350.64 682.45 1357.73 670.95 1369.21 668.71C1375.31 667.53 1383.14 670.9 1383.21 677.11C1383.24 680.73 1380.59 683.85 1377.62 685.92C1374.65 687.99 1371.23 689.38 1368.41 691.66C1363.75 695.43 1361.24 701.23 1359.39 706.94Z" /><path class="shp4" d="M259.18 670.27C260.76 669.63 262.51 669.6 264.21 669.59C270.32 669.53 276.43 669.47 282.54 669.41C285.78 669.38 289.44 669.51 291.63 671.91C292.84 673.22 293.37 675.03 293.55 676.81C294.18 683.12 290.31 689.63 284.45 692.08C280.52 693.72 278.39 698.11 277.89 702.33C277.38 706.56 278.13 710.82 278.21 715.08C278.29 719.7 277.56 724.3 276.83 728.87C274.51 743.5 272.18 758.12 269.85 772.75C269.32 776.1 268.52 779.88 265.62 781.65C261.77 784 256.45 781.02 254.71 776.86C252.97 772.7 253.73 767.97 254.53 763.53C255.49 758.18 256.44 752.83 257.4 747.49C260.14 732.19 262.89 716.73 262.03 701.21C261.71 695.47 257.82 690.65 255.63 685.33C253.44 680.02 253.85 672.43 259.18 670.27L259.18 670.27Z" /><path class="shp4" d="M1641.7 669.27C1645.23 669.32 1648.76 669.38 1652.29 669.43C1656.47 669.5 1661.4 669.97 1663.54 673.56C1665.61 677.01 1663.85 681.56 1661.17 684.57C1658.49 687.57 1654.96 689.78 1652.61 693.04C1650.51 695.96 1649.51 699.5 1648.65 702.99C1645.42 716.01 1643.54 729.37 1643.05 742.78C1642.65 753.45 1643.09 764.43 1639.44 774.47C1638.08 778.21 1635.32 782.28 1631.35 782.12C1628.02 781.98 1625.54 778.73 1624.98 775.45C1624.42 772.18 1625.28 768.85 1625.88 765.58C1629.15 747.95 1625.14 729.27 1630.44 712.14C1631.6 708.39 1633.21 704.7 1633.36 700.78C1633.51 696.85 1631.72 692.5 1628.04 691.13C1621.95 688.87 1619.36 680.24 1623.2 675C1627.17 669.57 1634.97 669.16 1641.7 669.27L1641.7 669.27Z" /><path class="shp4" d="M1796.45 669.54C1798.29 669.55 1800.17 669.57 1801.87 670.26C1805.15 671.59 1807.08 675.31 1806.84 678.83C1806.6 682.36 1804.46 685.57 1801.63 687.68C1799.23 689.46 1796.29 690.63 1794.52 693.03C1793.1 694.96 1792.65 697.43 1792.25 699.79C1790.86 707.95 1789.47 716.1 1788.08 724.26C1785.92 736.92 1783.75 749.67 1783.83 762.51C1783.87 767.68 1784.17 773.22 1781.42 777.58C1778.66 781.95 1771.37 783.71 1768.5 779.42C1767.28 777.59 1767.2 775.25 1767.19 773.05C1767.14 750.77 1770 728.49 1775.68 706.95C1777.37 700.56 1772.9 694.41 1769.73 688.61C1766.56 682.82 1765.26 674.17 1770.93 670.78C1773.24 669.4 1776.09 669.38 1778.78 669.4C1784.67 669.45 1790.56 669.49 1796.45 669.54Z" /><path class="shp4" d="M515.37 716.64C515.38 731.71 508.24 746.08 508.17 761.15C508.15 766.32 508.92 771.75 506.78 776.46C504.64 781.16 497.93 784.21 494.22 780.6C492.31 778.74 491.9 775.84 491.76 773.17C490.42 748.64 501.6 724.51 499.08 700.07C498.53 694.72 494.88 690.29 492.69 685.39C490.49 680.49 490.36 673.58 495.02 670.91C496.89 669.84 499.14 669.71 501.29 669.61C507.4 669.33 513.5 669.04 519.6 668.76C524.75 668.52 529.77 672.48 530.74 677.55C531.7 682.61 528.49 688.14 523.61 689.81C518.84 691.44 516.06 696.56 515.31 701.54C514.56 706.53 515.36 711.6 515.37 716.64Z" /><path class="shp4" d="M744.83 777.26C740.19 783.56 730.91 783.4 723.12 782.63C720.81 782.39 718.28 782.06 716.71 780.35C715.15 778.66 715 776.14 714.94 773.84C714.62 761.37 714.34 748.6 718.22 736.75C723.64 720.21 720.55 702.17 722.82 684.92C723.3 681.25 724.07 677.51 726.12 674.43C728.17 671.36 731.78 669.07 735.45 669.53C739.11 669.99 742.26 673.9 741.13 677.42C735.93 693.57 739.6 711.28 736.38 727.95C734.77 736.28 731.44 744.33 731.2 752.81C731.12 755.65 732.32 759.37 735.15 759.23C739.4 759.02 743.68 761.44 745.69 765.19C747.71 768.94 747.36 773.83 744.83 777.26Z" /><path class="shp4" d="M1613.21 776.93C1608.58 783.79 1598.56 783.46 1590.36 782.36C1588.39 782.1 1586.25 781.75 1584.87 780.31C1583.74 779.13 1583.36 777.44 1583.1 775.83C1580.04 756.85 1588.24 738 1589.81 718.85C1590.87 705.92 1588.92 692.58 1592.62 680.14C1593.67 676.6 1595.3 673.02 1598.32 670.9C1601.33 668.78 1606.03 668.7 1608.34 671.57C1611.27 675.2 1608.95 680.45 1607.81 684.97C1606.67 689.47 1606.86 694.19 1606.88 698.83C1606.98 717.48 1604.31 736.15 1598.99 754.03C1598.44 755.86 1599.94 757.75 1601.68 758.55C1603.41 759.35 1605.39 759.44 1607.21 760C1613.87 762.03 1617.1 771.17 1613.21 776.93L1613.21 776.93Z" /><path class="shp4" d="M173.39 684.85C173.83 680.15 174.7 675.07 178.17 671.86C181.63 668.64 188.47 668.98 190.01 673.44C190.46 674.77 190.39 676.22 190.31 677.62C189.67 688.75 189.03 699.88 188.39 711C188.04 716.94 187.69 722.94 186.05 728.66C182.85 739.82 181.3 751.46 181.46 763.07C181.52 768.13 181.82 773.55 179.14 777.83C176.45 782.12 169.35 783.88 166.47 779.72C165.32 778.06 165.14 775.94 165.04 773.92C164.3 759.47 165.73 744.92 169.27 730.89C173.04 715.93 171.96 700.22 173.39 684.85Z" /><path class="shp4" d="M1188.43 670.67C1190.81 672.99 1190.89 676.72 1190.81 680.05C1190.54 690.71 1190.25 701.54 1187.06 711.73C1180.81 731.65 1186.28 753.92 1179.42 773.64C1177.91 777.99 1174.49 782.87 1169.96 782.02C1166.88 781.44 1164.88 778.24 1164.52 775.12C1164.16 772 1165.04 768.89 1165.62 765.81C1167.97 753.55 1165.87 740.84 1167.46 728.46C1169.05 716.08 1174.3 704.19 1174.22 691.71C1174.19 686.21 1173.15 680.45 1175.25 675.36C1177.35 670.28 1184.49 666.83 1188.43 670.67L1188.43 670.67Z" /><path class="shp4" d="M958.62 773.1C957.04 778.06 952 782.9 947.17 780.96C942.49 779.08 941.99 772.73 942.39 767.7C943.32 755.85 944.9 744.06 946.49 732.27C946.98 728.59 947.48 724.91 947.97 721.22C949.53 709.67 951.08 698.1 951.57 686.45C951.76 681.81 951.87 676.86 954.48 673.01C957.08 669.17 963.25 667.38 966.39 670.81C968.14 672.74 968.38 675.57 968.43 678.17C968.94 704.37 959.62 729.98 959.83 756.18C959.87 761.86 960.35 767.69 958.62 773.1L958.62 773.1Z" /><path class="shp4" d="M528.61 778.31C527.86 776.65 527.92 774.75 528.01 772.94C528.87 755.06 530.98 737.27 533.09 719.5C533.52 715.86 533.96 712.22 534.39 708.57C535.38 700.22 536.37 691.87 537.36 683.52C537.87 679.28 538.51 674.72 541.46 671.63C544.41 668.54 550.5 668.24 552.35 672.09C553.01 673.45 553.01 675.02 553 676.54C552.88 693.26 552.73 710.18 548.65 726.4C545.81 737.69 544.57 749.39 544.97 761.03C545.17 766.69 545.63 772.81 542.51 777.53C539.38 782.25 530.93 783.47 528.61 778.31L528.61 778.31Z" /><path class="shp4" d="M548.5 306.23C544.66 304.72 543.69 299.84 543.27 295.73C543 293.1 542.73 290.46 542.46 287.82C542.12 284.5 541.83 280.92 543.51 278.03C544.55 276.22 546.25 274.91 547.91 273.64C550.59 271.58 553.72 269.41 557.04 270.05C560.76 270.76 562.87 274.6 564.47 278.03C565.69 280.62 566.81 283.99 564.87 286.1C561.62 289.62 561.09 294.77 559.32 299.21C557.55 303.66 552.95 307.99 548.5 306.23Z" /><path class="shp4" d="M1306.98 230.4C1308.06 224.84 1316.55 223.68 1320.6 227.65C1324.65 231.62 1324.91 238.11 1323.6 243.63C1322.06 250.18 1318.67 256.29 1313.94 261.07C1313.5 261.51 1313.01 261.96 1312.4 262.04C1311.7 262.14 1311.04 261.75 1310.45 261.36C1305.4 258.13 1299.95 254.34 1298.53 248.51C1295.2 249.03 1295.67 253.97 1294.25 257.03C1292.17 261.52 1285.04 261.33 1281.72 257.66C1278.4 253.99 1278.09 248.51 1278.7 243.6C1279.41 237.88 1281.34 231.96 1285.77 228.27C1290.2 224.59 1297.63 224.15 1301.34 228.56C1302.15 229.52 1302.79 230.69 1303.88 231.32C1304.97 231.95 1306.74 231.64 1306.98 230.4L1306.98 230.4Z" /><path class="shp4" d="M1720.44 97.22C1720.09 101.74 1719.64 106.37 1717.74 110.49C1715.83 114.61 1712.2 118.2 1707.71 118.86C1705.74 119.14 1703.29 118.53 1702.7 116.63C1700.89 110.78 1699.06 104.76 1699.5 98.65C1699.95 92.54 1703.19 86.23 1708.88 83.96C1711.29 83 1714.15 82.85 1716.39 84.16C1720.56 86.58 1720.8 92.41 1720.44 97.22L1720.44 97.22Z" /><path class="shp4" d="M1695.36 109.2C1693.19 114.4 1688.61 118.53 1683.21 120.14C1677.75 115.33 1677.19 107.08 1677.73 99.82C1678.12 94.55 1679.15 88.8 1683.2 85.4C1687.24 82 1695.05 83.26 1695.88 88.48C1696.98 95.4 1698.04 102.73 1695.36 109.2L1695.36 109.2Z" /></g></svg>