<svg version="1.2" baseProfile="tiny-ps" xmlns="http://www.w3.org/2000/svg" viewBox="0 0 1080 626" width="1080" height="626"><title>New Project</title><defs><linearGradient id="grd1" gradientUnits="userSpaceOnUse"  x1="1080" y1="155.472" x2="0" y2="326.528"><stop offset="0" stop-color="#357a42"  /><stop offset="1" stop-color="#adcd4e"  /></linearGradient></defs><style>tspan { white-space:pre }</style><g ><path fill=" url(#grd1)" aria-label="404"  d="M284.53 10.77L284.53 297.78L336.69 297.78L336.69 371.43L284.53 371.43L284.53 471L193.18 471L193.18 371.43L4.48 371.43L0.37 313.9L192.23 10.77L284.53 10.77ZM187.18 145.74L91.4 297.78L193.18 297.78L193.18 135.31L187.18 145.74ZM695.45 196L695.45 280.71Q695.45 376.17 655.94 426.75Q616.43 477.32 540.25 477.32Q465.02 477.32 425.19 427.7Q385.36 378.07 384.42 285.46L384.42 200.74Q384.42 104.34 424.24 54.39Q464.39 4.45 539.62 4.45Q614.85 4.45 654.67 54.08Q694.5 103.39 695.45 196ZM604.1 297.15L604.1 187.78Q604.1 130.57 588.29 104.65Q572.81 78.42 539.62 78.42Q507.38 78.42 491.89 103.39Q476.71 128.04 475.77 180.83L475.77 292.73Q475.77 348.99 490.94 376.49Q506.43 403.67 540.25 403.67Q573.75 403.67 588.61 377.44Q603.47 351.2 604.1 297.15ZM1027.34 10.77L1027.34 297.78L1079.5 297.78L1079.5 371.43L1027.34 371.43L1027.34 471L935.99 471L935.99 371.43L747.29 371.43L743.18 313.9L935.05 10.77L1027.34 10.77ZM929.99 145.74L834.21 297.78L935.99 297.78L935.99 135.31L929.99 145.74Z" /><path fill="#000000" aria-label="Page Not Found"  d="M283.1 583.21L272.95 583.21L272.95 603L261.38 603L261.38 546.84L283.29 546.84Q289.61 546.84 294.4 549.15Q299.22 551.46 301.8 555.75Q304.39 559.99 304.39 565.43Q304.39 573.68 298.72 578.47Q293.09 583.21 283.1 583.21ZM272.95 556.21L272.95 573.84L283.29 573.84Q287.88 573.84 290.27 571.68Q292.7 569.52 292.7 565.51Q292.7 561.38 290.27 558.83Q287.84 556.29 283.56 556.21L272.95 556.21ZM346.63 603L335.36 603Q334.59 601.5 334.25 599.26Q330.19 603.77 323.71 603.77Q317.58 603.77 313.53 600.22Q309.52 596.67 309.52 591.27Q309.52 584.64 314.42 581.09Q319.36 577.54 328.65 577.5L333.78 577.5L333.78 575.11Q333.78 572.22 332.28 570.48Q330.81 568.75 327.61 568.75Q324.79 568.75 323.17 570.1Q321.59 571.45 321.59 573.8L310.44 573.8Q310.44 570.17 312.68 567.09Q314.92 564 319.01 562.27Q323.1 560.49 328.19 560.49Q335.9 560.49 340.42 564.39Q344.97 568.24 344.97 575.27L344.97 593.36Q345.01 599.3 346.63 602.34L346.63 603ZM326.14 595.25Q328.61 595.25 330.7 594.17Q332.78 593.05 333.78 591.2L333.78 584.02L329.62 584.02Q321.25 584.02 320.71 589.81L320.67 590.46Q320.67 592.55 322.13 593.9Q323.6 595.25 326.14 595.25ZM351.91 582.29L351.91 581.82Q351.91 572.22 356.46 566.35Q361.05 560.49 368.81 560.49Q375.67 560.49 379.49 565.2L379.96 561.26L390.06 561.26L390.06 601.61Q390.06 607.09 387.55 611.14Q385.09 615.19 380.57 617.31Q376.06 619.43 370 619.43Q365.41 619.43 361.05 617.62Q356.7 615.77 354.46 612.88L359.4 606.09Q363.56 610.75 369.5 610.75Q373.94 610.75 376.41 608.4Q378.88 606.01 378.88 601.65L378.88 599.41Q375.02 603.77 368.73 603.77Q361.21 603.77 356.54 597.91Q351.91 592.01 351.91 582.29ZM363.06 582.63Q363.06 588.3 365.34 591.54Q367.61 594.75 371.58 594.75Q376.68 594.75 378.88 590.93L378.88 573.38Q376.64 569.56 371.66 569.56Q367.65 569.56 365.34 572.83Q363.06 576.11 363.06 582.63ZM417.84 603.77Q408.65 603.77 402.87 598.14Q397.12 592.51 397.12 583.13L397.12 582.05Q397.12 575.77 399.55 570.83Q401.98 565.85 406.42 563.19Q410.89 560.49 416.6 560.49Q425.16 560.49 430.06 565.89Q435 571.29 435 581.21L435 585.76L408.42 585.76Q408.96 589.85 411.66 592.31Q414.4 594.78 418.57 594.78Q425.01 594.78 428.64 590.12L434.11 596.25Q431.61 599.8 427.32 601.8Q423.04 603.77 417.84 603.77ZM416.56 569.52Q413.25 569.52 411.16 571.75Q409.12 573.99 408.54 578.16L424.05 578.16L424.05 577.27Q423.97 573.57 422.04 571.56Q420.11 569.52 416.56 569.52ZM507.4 546.84L507.4 603L495.83 603L473.31 566.05L473.31 603L461.73 603L461.73 546.84L473.31 546.84L495.87 583.87L495.87 546.84L507.4 546.84ZM515.04 582.25L515.04 581.75Q515.04 575.54 517.43 570.67Q519.83 565.81 524.3 563.15Q528.81 560.49 534.75 560.49Q543.2 560.49 548.52 565.66Q553.89 570.83 554.5 579.7L554.58 582.56Q554.58 592.16 549.22 597.99Q543.86 603.77 534.83 603.77Q525.8 603.77 520.4 597.99Q515.04 592.2 515.04 582.25ZM526.19 582.56Q526.19 588.5 528.43 591.66Q530.67 594.78 534.83 594.78Q538.88 594.78 541.16 591.7Q543.43 588.57 543.43 581.75Q543.43 575.92 541.16 572.72Q538.88 569.52 534.75 569.52Q530.67 569.52 528.43 572.72Q526.19 575.88 526.19 582.56ZM563.65 551L574.79 551L574.79 561.26L581.93 561.26L581.93 569.44L574.79 569.44L574.79 590.27Q574.79 592.58 575.68 593.59Q576.57 594.59 579.08 594.59Q580.93 594.59 582.35 594.32L582.35 602.77Q579.08 603.77 575.6 603.77Q563.88 603.77 563.65 591.93L563.65 569.44L557.55 569.44L557.55 561.26L563.65 561.26L563.65 551ZM642.34 570.71L642.34 580.05L620.12 580.05L620.12 603L608.55 603L608.55 546.84L645.11 546.84L645.11 556.21L620.12 556.21L620.12 570.71L642.34 570.71ZM648.55 582.25L648.55 581.75Q648.55 575.54 650.94 570.67Q653.33 565.81 657.81 563.15Q662.32 560.49 668.26 560.49Q676.71 560.49 682.03 565.66Q687.39 570.83 688.01 579.7L688.09 582.56Q688.09 592.16 682.72 597.99Q677.36 603.77 668.34 603.77Q659.31 603.77 653.91 597.99Q648.55 592.2 648.55 582.25ZM659.7 582.56Q659.7 588.5 661.93 591.66Q664.17 594.78 668.34 594.78Q672.39 594.78 674.66 591.7Q676.94 588.57 676.94 581.75Q676.94 575.92 674.66 572.72Q672.39 569.52 668.26 569.52Q664.17 569.52 661.93 572.72Q659.7 575.88 659.7 582.56ZM720.26 603L719.95 598.76Q715.82 603.77 708.53 603.77Q701.82 603.77 698.27 599.91Q694.76 596.06 694.68 588.61L694.68 561.26L705.83 561.26L705.83 588.23Q705.83 594.75 711.77 594.75Q717.44 594.75 719.56 590.81L719.56 561.26L730.75 561.26L730.75 603L720.26 603ZM738.93 561.26L749.42 561.26L749.77 566.08Q754.24 560.49 761.76 560.49Q768.4 560.49 771.64 564.39Q774.88 568.28 774.96 576.04L774.96 603L763.81 603L763.81 576.31Q763.81 572.76 762.26 571.18Q760.72 569.56 757.13 569.56Q752.43 569.56 750.08 573.57L750.08 603L738.93 603L738.93 561.26ZM781.67 581.82Q781.67 572.06 786.03 566.28Q790.42 560.49 798.02 560.49Q804.12 560.49 808.09 565.04L808.09 543.75L819.28 543.75L819.28 603L809.21 603L808.67 598.56Q804.5 603.77 797.95 603.77Q790.58 603.77 786.1 597.99Q781.67 592.16 781.67 581.82ZM792.82 582.63Q792.82 588.5 794.86 591.62Q796.9 594.75 800.8 594.75Q805.97 594.75 808.09 590.39L808.09 573.92Q806.01 569.56 800.88 569.56Q792.82 569.56 792.82 582.63Z" /></g></svg>